<svg xmlns="http://www.w3.org/2000/svg" id="Calque_1" viewBox="0 0 342.5 242.2">
  <style>
    .st0,.st6,.st7,.st8,.st9{fill:none;stroke:#26336e;stroke-width:1.3308;stroke-miterlimit:10}.st6,.st7,.st8,.st9{stroke-width:1.1672}.st7,.st8,.st9{stroke-width:1.233}.st8,.st9{stroke-width:1.2971}.st9{stroke-width:1.3016}
  </style>
  <path d="M211.7 58.3h91.5l25.2 14.1v161.3H12.7V72.4L38 58.3h91.5m5.5 0h27.4m15.5 0h28.3" class="st0"/>
  <path fill="none" stroke="#26336e" stroke-miterlimit="10" stroke-width="1.155" d="M208 175h-75.8v-5.3H208v5.3z"/>
  <path d="M179.4 175.2v1.7l.7 1.5.8.8v38.7l-.8 1v1.2h-.7v5.2h7.8v-5.2h-.7v-1.2l-.8-1v-38.7l.8-.8.7-1.5v-1.7h-7.8zm22 0v1.7l.7 1.5.8.8v38.7l-.8 1v1.2h-.7v5.2h7.8v-5.2h-.7v-1.2l-.8-1v-38.7l.8-.8.7-1.5v-1.7h-7.8zm-49 0v1.7l.7 1.5.8.8v38.7l-.8 1v1.2h-.7v5.2h7.8v-5.2h-.7v-1.2l-.8-1v-38.7l.8-.8.7-1.5v-1.7h-7.8zm-21.9 0v1.7l.7 1.5.8.8v38.7l-.8 1v1.2h-.7v5.2h7.8v-5.2h-.7v-1.2l-.8-1v-38.7l.8-.8.7-1.5v-1.7h-7.8zm7.8-61.9h-7.8v1.7l.7 1 .8.8v39.4l-.2 1v1l-.7 1.3v5.7h6.5v-5.7l-.7-1.3v-1l-.2-1v-39.4l.8-.8.7-1v-1.7h.1zm22.3 0h-7.8v1.7l.7 1 .8.8v39.4l-.2 1v1l-.7 1.3v5.7h6.5v-5.7l-.7-1.3v-1l-.2-1v-39.4l.8-.8.7-1v-1.7h.1zm26.6 0h-7.8v1.7l.7 1 .8.8v39.4l-.2 1v1l-.7 1.3v5.7h6.5v-5.7l-.7-1.3v-1l-.2-1v-39.4l.8-.8.7-1v-1.7h.1zm22.3 0h-7.8v1.7l.7 1 .8.8v39.4l-.2 1v1l-.7 1.3v5.7h6.5v-5.7l-.7-1.3v-1l-.2-1v-39.4l.8-.8.7-1v-1.7h.1zm31.9 119.8v-2.4h-7.1v-2.3h-6.6v-3.1H113v3.1h-6.6v2.3h-7.1v2.4" class="st0"/>
  <path fill="none" stroke="#26336e" stroke-miterlimit="10" stroke-width="1.18" d="M12.5 165.4h315.8m-315.8 4h315.8m-200.3-4l2 4m82.2-4l-2 4m-2.2-56.6v-7.3h3.8v-4.3l-41.9-17.3-41.9 17.3v4.3h3.8v7.3"/>
  <circle cx="170.2" cy="98" r="4.4" fill="none" stroke="#26336e" stroke-miterlimit="10" stroke-width="1.211"/>
  <path fill="none" stroke="#26336e" stroke-linejoin="bevel" stroke-miterlimit="10" stroke-width="1.306" d="M135.6 104.7L170.1 90l34.8 14.7h-69.3z"/>
  <path d="M12.8 108.8h119m76.1 0h120.5M12.8 72.5h123.3m68.4 0h123.3m-315 152.7h100.3m114.6 0h101M12.8 113h315.4M21.3 221.3v-44.6s6.5-3.3 14.1 0v44.6H21.3zm7-45.8v45.7m-7-34.5h14.1m-14.1 8.7h14.1m-14.1 8.5h14.1m-14.1 8h14.1" class="st0"/>
  <path d="M26.2 169.2l-.9 3.1 1.1 2.9m4.1-6l.9 3.1-1.1 2.9m20.6 46.1v-44.6s6.5-3.3 14.1 0v44.6H50.9zm7-45.8v45.7m-7-34.5h14m-14 8.7h14m-14 8.5h14m-14 8h14" class="st0"/>
  <path d="M55.8 169.2l-1 3.1 1.2 2.9m4.1-6l.9 3.1-1.2 2.9m20.6 46.1v-44.6s6.5-3.3 14.1 0v44.6H80.4zm7.1-45.8v45.7m-7-34.5h14m-14 8.7h14m-14 8.5h14m-14 8h14" class="st0"/>
  <path d="M85.4 169.2l-1 3.1 1.2 2.9m4-6l1 3.1-1.2 2.9m20.6 46.1v-44.6s6.5-3.3 14.1 0v44.6H110zm7.1-45.8v45.7m-7-34.5h14m-14 8.7h14m-14 8.5h14m-14 8h14" class="st0"/>
  <path d="M115 169.2l-1 3.1 1.2 2.9m4-6l1 3.1-1.2 2.9m96.8 46.1v-44.6s6.5-3.3 14.1 0v44.6h-14.1zm7-45.8v45.7m-7-34.5h14.1m-14.1 8.7h14.1m-14.1 8.5h14.1m-14.1 8h14.1" class="st0"/>
  <path d="M220.7 169.2l-.9 3.1 1.1 2.9m4.1-6l.9 3.1-1.1 2.9m20.6 46.1v-44.6s6.5-3.3 14.1 0v44.6h-14.1zm7-45.8v45.7m-7-34.5h14m-14 8.7h14m-14 8.5h14m-14 8h14" class="st0"/>
  <path d="M250.3 169.2l-1 3.1 1.2 2.9m4.1-6l.9 3.1-1.1 2.9m20.5 46.1v-44.6s6.5-3.3 14.1 0v44.6h-14.1zm7.1-45.8v45.7m-7-34.5h14m-14 8.7h14m-14 8.5h14m-14 8h14" class="st0"/>
  <path d="M279.9 169.2l-1 3.1 1.2 2.9m4-6l1 3.1-1.2 2.9M304.5 221.3v-44.6s6.5-3.3 14.1 0v44.6h-14.1zm7.1-45.8v45.7m-7-34.5h14m-14 8.7h14m-14 8.5h14m-14 8h14" class="st0"/>
  <path d="M309.5 169.2l-1 3.1 1.2 2.9m4-6l1 3.1-1.2 2.9" class="st0"/>
  <path fill="none" stroke="#26336e" stroke-miterlimit="10" stroke-width="1.332" d="M208.1 99L204 70.3h-3.5l-23.7-12.6v-3.9h-13.5v3.9l-23.7 12.6h-3.5L132 99"/>
  <path d="M177.6 126.9c0-4.2-3.4-7.6-7.6-7.6s-7.6 3.4-7.6 7.6v34.3h15.3l-.1-34.3z" class="st6"/>
  <path d="M21.8 119.9h13.9v40H21.8v-40z" class="st0"/>
  <path d="M28.7 120.2v40m-7.2-31h14.4m-14.4 8.1h14.4m-14.4 7.4h14.4m-14.4 7.6h14.4" class="st7"/>
  <path d="M26 113.4l1.1 6.5m4.4-6.7l-1.2 6.7M50.9 119.9h13.9v40H50.9v-40z" class="st0"/>
  <path d="M57.9 120.2v40m-7.2-31H65m-14.3 8.1H65m-14.3 7.4H65m-14.3 7.6H65" class="st7"/>
  <path d="M55.1 113.4l1.2 6.5m4.3-6.7l-1.1 6.7M80.3 119.9h13.9v40H80.3v-40z" class="st0"/>
  <path d="M87.2 120.2v40m-7.1-31h14.3m-14.3 8.1h14.3m-14.3 7.4h14.3m-14.3 7.6h14.3" class="st7"/>
  <path d="M84.5 113.4l1.1 6.5m4.4-6.7l-1.2 6.7M109.7 119.9h13.9v40h-13.9v-40z" class="st0"/>
  <path d="M116.6 120.2v40m-7.2-31h14.4m-14.4 8.1h14.4m-14.4 7.4h14.4m-14.4 7.6h14.4" class="st7"/>
  <path d="M113.9 113.4l1.1 6.5m4.4-6.7l-1.2 6.7M216.3 119.9h13.9v40h-13.9v-40z" class="st0"/>
  <path d="M223.2 120.2v40m-7.2-31h14.4m-14.4 8.1h14.4m-14.4 7.4h14.4m-14.4 7.6h14.4" class="st7"/>
  <path d="M220.5 113.4l1.1 6.5m4.4-6.7l-1.2 6.7M245.4 119.9h13.9v40h-13.9v-40z" class="st0"/>
  <path d="M252.4 120.2v40m-7.2-31h14.4m-14.4 8.1h14.4m-14.4 7.4h14.4m-14.4 7.6h14.4" class="st7"/>
  <path d="M249.6 113.4l1.2 6.5m4.3-6.7l-1.1 6.7M274.8 119.9h13.9v40h-13.9v-40z" class="st0"/>
  <path d="M281.7 120.2v40m-7.1-31h14.3m-14.3 8.1h14.3m-14.3 7.4h14.3m-14.3 7.6h14.3" class="st7"/>
  <path d="M279 113.4l1.1 6.5m4.4-6.7l-1.2 6.7M304.2 119.9h13.9v40h-13.9v-40z" class="st0"/>
  <path d="M311.1 120.2v40m-7.2-31h14.4m-14.4 8.1h14.4m-14.4 7.4h14.4m-14.4 7.6h14.4" class="st7"/>
  <path d="M308.4 113.4l1.1 6.5m4.4-6.7l-1.2 6.7" class="st0"/>
  <path d="M18 100.5V84h-1.7v-2.7H20c0-2.7 3.7-4.9 8.3-4.9s8.3 2.2 8.3 4.9h3.7V84h-1.7v16.5H18z" class="st8"/>
  <path d="M23.4 100.3V83.5c0-1.9 2.2-3.4 4.9-3.4s4.9 1.5 4.9 3.4v16.9m-4.9-20.3v20.4m-4.9-17.1h9.8m-9.8 8h9.8" class="st8"/>
  <g>
    <path d="M47.4 100.5V84h-1.7v-2.7h3.7c0-2.7 3.7-4.9 8.3-4.9s8.3 2.2 8.3 4.9h3.7V84H68v16.5H47.4z" class="st8"/>
    <path d="M52.7 100.3V83.5c0-1.9 2.2-3.4 4.9-3.4s4.9 1.5 4.9 3.4v16.9m-4.9-20.3v20.4m-4.9-17.1h9.8m-9.8 8h9.8" class="st8"/>
  </g>
  <g>
    <path d="M77 100.5V84h-1.7v-2.7H79c0-2.7 3.7-4.9 8.3-4.9s8.3 2.2 8.3 4.9h3.7V84h-1.7v16.5H77z" class="st8"/>
    <path d="M82.3 100.3V83.5c0-1.9 2.2-3.4 4.9-3.4s4.9 1.5 4.9 3.4v16.9m-4.9-20.3v20.4m-4.9-17.1h9.8m-9.8 8h9.8" class="st8"/>
  </g>
  <g>
    <path d="M106.6 100.5V84h-1.7v-2.7h3.7c0-2.7 3.7-4.9 8.3-4.9s8.3 2.2 8.3 4.9h3.7V84h-1.7v16.5h-20.6z" class="st8"/>
    <path d="M111.9 100.3V83.5c0-1.9 2.2-3.4 4.9-3.4s4.9 1.5 4.9 3.4v16.9m-4.9-20.3v20.4m-4.9-17.1h9.8m-9.8 8h9.8" class="st8"/>
  </g>
  <g>
    <path d="M213.2 100.5V84h-1.7v-2.7h3.7c0-2.7 3.7-4.9 8.3-4.9s8.3 2.2 8.3 4.9h3.7V84h-1.7v16.5h-20.6z" class="st8"/>
    <path d="M218.5 100.3V83.5c0-1.9 2.2-3.4 4.9-3.4s4.9 1.5 4.9 3.4v16.9m-4.9-20.3v20.4m-4.9-17.1h9.8m-9.8 8h9.8" class="st8"/>
  </g>
  <g>
    <path d="M242.6 100.5V84h-1.7v-2.7h3.7c0-2.7 3.7-4.9 8.3-4.9 4.6 0 8.3 2.2 8.3 4.9h3.7V84h-1.7v16.5h-20.6z" class="st8"/>
    <path d="M247.9 100.3V83.5c0-1.9 2.2-3.4 4.9-3.4s4.9 1.5 4.9 3.4v16.9m-4.9-20.3v20.4m-4.9-17.1h9.8m-9.8 8h9.8" class="st8"/>
  </g>
  <g>
    <path d="M272.2 100.5V84h-1.7v-2.7h3.7c0-2.7 3.7-4.9 8.3-4.9s8.3 2.2 8.3 4.9h3.7V84h-1.7v16.5h-20.6z" class="st8"/>
    <path d="M277.5 100.3V83.5c0-1.9 2.2-3.4 4.9-3.4s4.9 1.5 4.9 3.4v16.9m-4.9-20.3v20.4m-4.9-17.1h9.8m-9.8 8h9.8" class="st8"/>
  </g>
  <g>
    <path d="M301.7 100.5V84H300v-2.7h3.7c0-2.7 3.7-4.9 8.3-4.9s8.3 2.2 8.3 4.9h3.7V84h-1.7v16.5h-20.6z" class="st8"/>
    <path d="M307.1 100.3V83.5c0-1.9 2.2-3.4 4.9-3.4s4.9 1.5 4.9 3.4v16.9M312 80.1v20.4m-4.9-17.1h9.8m-9.8 8h9.8" class="st8"/>
  </g>
  <path d="M136 44h-7.6l1 5.2v16.1h5.6V49.2l1-5.2zm-2.1 0v-5.5h-3.4V44m82.8 0h-7.7l1 5.2v16.1h5.7V49.2l1-5.2zm-2.1 0v-5.5h-3.5V44" class="st8"/>
  <path d="M140.5 72.7h59.1m-48.4 18.9v-1.7s-2.1-1.3-1.4-3.5 1.1-5.2-2.6-5.9c0 0-.4-1.5-2-1.5-1.5 0-2 1.5-2 1.5-3.7.7-3.3 3.7-2.6 5.9s-1.4 3.5-1.4 3.5v6.4" class="st0"/>
  <ellipse cx="145.3" cy="87" class="st9" rx="2.4" ry="4"/>
  <path d="M188.9 91.6v-1.7s2.1-1.3 1.4-3.5c-.7-2.2-1.1-5.2 2.6-5.9 0 0 .4-1.5 2-1.5s2 1.5 2 1.5c3.7.7 3.3 3.7 2.6 5.9s1.4 3.5 1.4 3.5v6.4" class="st0"/>
  <ellipse cx="194.9" cy="87" class="st9" rx="2.4" ry="4"/>
  <path d="M147 147.1l.9-8h-5l.6 8h.7v5h2.1v-5h.7zm-2.8-8l-.5-2.4-1.7-2.2.6-2.6 2-.7v-1.3l-.9-1.5 1.1-1.7 2 .6.4 2-.6.8v1.1l1.7.9.9 2.4-2.4 2.2-.5 2.4h-2.1zm51.5 8l.9-8h-5l.7 8h.6v5h2.2v-5h.6zm-2.8-8l-.4-2.4-1.8-2.2.7-2.6 1.9-.7v-1.3l-.8-1.5 1.1-1.7 1.9.6.5 2-.7.8v1.1l1.7.9.9 2.4-2.4 2.2-.4 2.4h-2.2z" class="st7"/>
  <path d="M162.5 129.5h15m-15 8.1h15m-15 7.7h15m-15 7.6h15m-7.5-33.5v41.7" class="st6"/>
  <g>
    <path d="M167.8 113.2l.9 6.1m3.5-6.3l-.9 6.4" class="st6"/>
  </g>
  <path d="M172.2 53.5v-9.7h-4.1v9.7m2.1-10.1V21.2M57.1 58.1v-5.6H43.7v5.6m60.4 0v-5.6H90.6v5.6m159.1 0v-5.6h-13.5v5.6m60.5 0v-5.6h-13.5v5.6" class="st0"/>
  <g>
    <path fill="#26336e" d="M169.5 5.5h8.1v16.1h-8.1V5.5z"/>
    <path fill="#fff" d="M177.6 5.5h8.1v16.1h-8.1V5.5z"/>
    <path fill="#e30613" d="M185.6 5.5h8.1v16.1h-8.1V5.5z"/>
  </g>
</svg>
